<svg xmlns="http://www.w3.org/2000/svg" viewBox="0 0 1024 1024" role="img" aria-label=")°™©K">
  <defs>
    <linearGradient id="bg" x1="0%" y1="0%" x2="100%" y2="100%">
      <stop offset="0%" stop-color="#4f46e5"/>
      <stop offset="100%" stop-color="#3b82f6"/>
    </linearGradient>
    <filter id="shadow" x="-20%" y="-20%" width="140%" height="140%">
      <feDropShadow dx="0" dy="12" stdDeviation="18" flood-color="#1e1b4b" flood-opacity="0.35"/>
    </filter>
  </defs>
  <rect x="64" y="64" width="896" height="896" rx="200" fill="url(#bg)"/>
  <g filter="url(#shadow)">
    <rect x="272" y="220" width="420" height="520" rx="36" fill="#f8fafc"/>
    <path d="M620 220h72v108c0 24-20 44-44 44H620z" fill="#e2e8f0"/>
    <rect x="332" y="360" width="300" height="28" rx="14" fill="#cbd5e1"/>
    <rect x="332" y="430" width="260" height="24" rx="12" fill="#dbeafe"/>
    <rect x="332" y="490" width="220" height="24" rx="12" fill="#dbeafe"/>
    <path d="M560 620c72 18 132 66 168 132 8 14-2 32-18 32H430c-16 0-26-18-18-32 36-66 96-114 168-132z" fill="#10b981"/>
    <path d="M612 500l88 88-36 36-88-88z" fill="#059669"/>
    <circle cx="700" cy="420" r="18" fill="#34d399"/>
    <path d="M700 392v56M672 420h56" stroke="#ecfdf5" stroke-width="8" stroke-linecap="round"/>
  </g>
</svg>
